<?xml version="1.0" standalone="no"?>
<!DOCTYPE svg PUBLIC "-//W3C//DTD SVG 20010904//EN"
 "http://www.w3.org/TR/2001/REC-SVG-20010904/DTD/svg10.dtd">
<svg version="1.0" xmlns="http://www.w3.org/2000/svg"
 width="301.000000pt" height="301.000000pt" viewBox="0 0 301.000000 301.000000"
 preserveAspectRatio="xMidYMid meet">

<g transform="translate(0.000000,301.000000) scale(0.100000,-0.100000)"
fill="#000000" stroke="none">
<path d="M890 2260 l0 -520 -395 0 -395 0 0 -23 c0 -17 21 -36 89 -82 58 -39
95 -71 104 -91 9 -18 68 -76 133 -130 125 -105 132 -115 158 -234 l17 -75 57
-32 c31 -17 91 -56 132 -87 70 -52 79 -56 131 -56 48 0 59 4 80 27 14 16 34
51 44 78 26 73 29 75 104 75 91 0 105 -6 138 -53 16 -24 45 -48 68 -58 32 -14
44 -27 56 -61 9 -24 48 -99 86 -168 51 -90 80 -132 105 -148 33 -22 36 -28 41
-90 5 -50 12 -71 31 -91 13 -14 35 -49 49 -77 24 -48 29 -51 80 -63 30 -6 63
-18 73 -26 11 -8 31 -15 45 -15 14 0 63 -11 109 -25 106 -32 160 -32 195 -2
l26 22 -21 60 c-38 110 -61 216 -54 249 13 63 65 173 97 204 32 31 241 162
259 162 5 0 44 35 86 78 87 88 146 122 214 122 57 0 77 19 58 55 -11 21 -11
30 4 64 15 33 16 45 7 74 -10 28 -9 52 3 116 17 89 15 100 -26 152 -15 20 -28
48 -28 61 0 13 -13 42 -30 65 -28 37 -30 49 -40 174 -5 74 -13 160 -16 192
l-7 57 -32 -6 c-41 -7 -143 18 -206 52 l-48 27 -93 -27 c-98 -28 -138 -32
-153 -17 -9 8 -60 14 -215 24 -31 2 -53 10 -68 25 -19 19 -25 20 -42 10 -26
-16 -130 4 -147 29 -28 41 -35 44 -73 38 -24 -4 -46 -2 -59 7 -20 12 -21 20
-21 245 l0 233 -355 0 -355 0 0 -520z"/>
</g>
</svg>
